<svg width="31" height="31" viewBox="0 0 31 31" fill="none" xmlns="http://www.w3.org/2000/svg">
<g clip-path="url(#clip0_240_125)">
<path d="M20.4267 20.646C19.3922 21.7302 18.0561 22.4788 16.5913 22.7951C15.1266 23.1113 13.6006 22.9806 12.2109 22.4199C10.8213 21.8592 9.6319 20.8943 8.79677 19.65C7.96165 18.4058 7.51921 16.9395 7.52674 15.441C7.52674 14.0482 7.9146 12.6829 8.64686 11.4981C9.37912 10.3132 10.4268 9.35574 11.6726 8.73284C12.9184 8.10994 14.3131 7.84627 15.7003 7.97135C17.0875 8.09644 18.4125 8.60534 19.5267 9.44105V7.94105H22.5267V17.691C22.5267 18.2878 22.7638 18.8601 23.1858 19.282C23.6077 19.704 24.18 19.941 24.7767 19.941C25.3735 19.941 25.9458 19.704 26.3677 19.282C26.7897 18.8601 27.0267 18.2878 27.0267 17.691V15.441C27.0249 12.8304 26.1717 10.2916 24.5966 8.20967C23.0216 6.12772 20.8105 4.6162 18.2988 3.90436C15.7871 3.19251 13.1118 3.31917 10.6786 4.26512C8.24537 5.21107 6.18701 6.92471 4.81567 9.14615C3.44433 11.3676 2.83483 13.9756 3.07961 16.5748C3.32438 19.1739 4.41008 21.6223 6.17203 23.5487C7.93399 25.475 10.2761 26.7742 12.8431 27.2493C15.4102 27.7243 18.0621 27.3493 20.3967 26.181L21.7467 28.866C18.8291 30.3281 15.5142 30.7987 12.3049 30.2065C9.0956 29.6143 6.16698 27.9917 3.96324 25.5846C1.7595 23.1776 0.40088 20.1175 0.0934535 16.8686C-0.213973 13.6196 0.546568 10.359 2.25972 7.58135C3.97287 4.80368 6.54516 2.66051 9.58643 1.47688C12.6277 0.293255 15.972 0.133764 19.1121 1.0226C22.2522 1.91143 25.0168 3.8001 26.9865 6.40212C28.9562 9.00415 30.0236 12.1776 30.0267 15.441H29.7567H30.0117V17.691C30.0151 18.8164 29.6568 19.913 28.9896 20.8192C28.3225 21.7254 27.3818 22.3933 26.3063 22.7244C25.2307 23.0554 24.0773 23.0321 23.016 22.6579C21.9547 22.2838 21.0418 21.5785 20.4117 20.646H20.4267ZM15.0267 19.941C16.2202 19.941 17.3648 19.4669 18.2087 18.623C19.0526 17.7791 19.5267 16.6345 19.5267 15.441C19.5267 14.2476 19.0526 13.103 18.2087 12.2591C17.3648 11.4152 16.2202 10.941 15.0267 10.941C13.8333 10.941 12.6887 11.4152 11.8448 12.2591C11.0008 13.103 10.5267 14.2476 10.5267 15.441C10.5267 16.6345 11.0008 17.7791 11.8448 18.623C12.6887 19.4669 13.8333 19.941 15.0267 19.941V19.941Z" fill="black"/>
</g>
<defs>
<clipPath id="clip0_240_125">
<rect width="30" height="30" fill="white" transform="translate(0.0267334 0.44104)"/>
</clipPath>
</defs>
</svg>
