<svg width="31" height="31" viewBox="0 0 31 31" fill="none" xmlns="http://www.w3.org/2000/svg">
<g clip-path="url(#clip0_66_21)">
<path fill-rule="evenodd" clip-rule="evenodd" d="M15.0267 0.44104C6.73923 0.44104 0.0267334 7.15354 0.0267334 15.441C0.0267334 22.0785 4.32048 27.6848 10.283 29.6723C11.033 29.8035 11.3142 29.3535 11.3142 28.9598C11.3142 28.6035 11.2955 27.4223 11.2955 26.166C7.52673 26.8598 6.55173 25.2473 6.25173 24.4035C6.08298 23.9723 5.35173 22.641 4.71423 22.2848C4.18923 22.0035 3.43923 21.3098 4.69548 21.291C5.87673 21.2723 6.72048 22.3785 7.00173 22.8285C8.35173 25.0973 10.508 24.4598 11.3705 24.066C11.5017 23.091 11.8955 22.4348 12.3267 22.0598C8.98923 21.6848 5.50173 20.391 5.50173 14.6535C5.50173 13.0223 6.08298 11.6723 7.03923 10.6223C6.88923 10.2473 6.36423 8.70979 7.18923 6.64729C7.18923 6.64729 8.44548 6.25354 11.3142 8.18479C12.5142 7.84729 13.7892 7.67854 15.0642 7.67854C16.3392 7.67854 17.6142 7.84729 18.8142 8.18479C21.683 6.23479 22.9392 6.64729 22.9392 6.64729C23.7642 8.70979 23.2392 10.2473 23.0892 10.6223C24.0455 11.6723 24.6267 13.0035 24.6267 14.6535C24.6267 20.4098 21.1205 21.6848 17.783 22.0598C18.3267 22.5285 18.7955 23.4285 18.7955 24.8348C18.7955 26.841 18.7767 28.4535 18.7767 28.9598C18.7767 29.3535 19.058 29.8223 19.808 29.6723C22.7857 28.6669 25.3732 26.7531 27.2063 24.2002C29.0394 21.6474 30.0258 18.5839 30.0267 15.441C30.0267 7.15354 23.3142 0.44104 15.0267 0.44104Z" fill="black"/>
</g>
<defs>
<clipPath id="clip0_66_21">
<rect width="30" height="30" fill="white" transform="translate(0.0267334 0.44104)"/>
</clipPath>
</defs>
</svg>
