<svg width="32" height="31" viewBox="0 0 32 31" fill="none" xmlns="http://www.w3.org/2000/svg">
<g clip-path="url(#clip0_66_19)">
<path d="M7.12037 30.4409V10.1999H0.421592L0.421592 30.4409H7.12037ZM3.77185 7.4347C6.10783 7.4347 7.56187 5.88043 7.56187 3.93811C7.51835 1.95199 6.10792 0.440857 3.81618 0.440857C1.52479 0.440857 0.0263672 1.95202 0.0263672 3.93811C0.0263672 5.88052 1.48005 7.4347 3.72812 7.4347H3.77164H3.77185ZM10.8281 30.4409H17.5269V19.1373C17.5269 18.5324 17.5704 17.9281 17.7473 17.4956C18.2316 16.2869 19.3338 15.0351 21.1843 15.0351C23.6083 15.0351 24.5781 16.8913 24.5781 19.6123V30.4407H31.2764V18.8348C31.2764 12.6175 27.9716 9.72472 23.5642 9.72472C19.9505 9.72472 18.3638 11.7534 17.4823 13.1351H17.5271V10.1995H10.8283C10.9162 12.0988 10.8283 30.4405 10.8283 30.4405L10.8281 30.4409Z" fill="black"/>
</g>
<defs>
<clipPath id="clip0_66_19">
<rect width="31.25" height="30" fill="white" transform="translate(0.0267334 0.44104)"/>
</clipPath>
</defs>
</svg>
